<svg width="24" height="25" viewBox="0 0 24 25" fill="none" xmlns="http://www.w3.org/2000/svg">
<path opacity="0.1" fill-rule="evenodd" clip-rule="evenodd" d="M0 12.3857C0 5.75833 5.37258 0.385742 12 0.385742C18.6274 0.385742 24 5.75833 24 12.3857C24 19.0132 18.6274 24.3857 12 24.3857C5.37258 24.3857 0 19.0132 0 12.3857Z" fill="#F9F8F9"/>
<path fill-rule="evenodd" clip-rule="evenodd" d="M18.4 12.377C18.4 12.8098 18.3559 13.242 18.2694 13.6633C18.185 14.0746 18.06 14.4784 17.8962 14.8644C17.7362 15.2436 17.5378 15.609 17.3059 15.9498C17.0774 16.2884 16.8143 16.6061 16.5252 16.8957C16.2355 17.184 15.9167 17.4465 15.5783 17.6759C15.2364 17.9061 14.8705 18.1043 14.4911 18.265C14.1045 18.4279 13.6997 18.5527 13.2888 18.637C12.8669 18.7238 12.4331 18.7681 11.9997 18.7681C11.5659 18.7681 11.1321 18.7238 10.7109 18.637C10.2993 18.5527 9.89459 18.4279 9.50832 18.265C9.12893 18.1043 8.76264 17.9061 8.42076 17.6759C8.0823 17.4465 7.76354 17.184 7.47446 16.8957C7.18508 16.6061 6.92193 16.2884 6.69317 15.9498C6.46253 15.609 6.26376 15.2436 6.10313 14.8644C5.93936 14.4784 5.81405 14.0746 5.72936 13.6633C5.64374 13.242 5.59998 12.8098 5.59998 12.377C5.59998 11.9438 5.64371 11.5107 5.72939 11.0903C5.81408 10.679 5.93938 10.2746 6.10316 9.88917C6.26378 9.5097 6.46256 9.14397 6.69319 8.80318C6.92195 8.46429 7.18511 8.14721 7.47449 7.85729C7.76357 7.56893 8.08233 7.30713 8.42078 7.07808C8.76267 6.84683 9.12895 6.64869 9.50834 6.48765C9.89462 6.32441 10.2993 6.19929 10.7109 6.11566C11.1322 6.02954 11.5659 5.98584 11.9997 5.98584C12.4332 5.98584 12.8669 6.02954 13.2888 6.11566C13.6998 6.19931 14.1045 6.32443 14.4911 6.48765C14.8705 6.64866 15.2364 6.84683 15.5783 7.07808C15.9168 7.30713 16.2356 7.56893 16.5252 7.85729C16.8143 8.14721 17.0775 8.46429 17.3059 8.80318C17.5378 9.14397 17.7362 9.50973 17.8962 9.88917C18.06 10.2746 18.185 10.679 18.2694 11.0903C18.3559 11.5107 18.4 11.9438 18.4 12.377ZM9.66766 7.44037C8.14351 8.15908 7.00595 9.5615 6.65124 11.2516C6.79533 11.2529 9.07295 11.2816 11.6971 10.5854C10.7512 8.90708 9.74049 7.53745 9.66766 7.44037ZM12.15 11.4258C9.33577 12.2671 6.6353 12.2066 6.53844 12.2028C6.53686 12.2615 6.53405 12.3183 6.53405 12.377C6.53405 13.7791 7.06376 15.0573 7.93444 16.0238C7.93256 16.0209 9.42828 13.3712 12.3778 12.4188C12.449 12.3951 12.5216 12.3738 12.5934 12.3532C12.4563 12.0431 12.3065 11.7322 12.15 11.4258ZM15.6092 8.28078C14.647 7.4335 13.3835 6.91956 11.9997 6.91956C11.5556 6.91956 11.1246 6.97324 10.7118 7.07247C10.7937 7.18234 11.8203 8.5423 12.755 10.2561C14.8173 9.48411 15.5958 8.30074 15.6092 8.28078ZM12.966 13.2576C12.9538 13.2616 12.9416 13.2651 12.9297 13.2695C9.70494 14.3921 8.65184 16.6544 8.64045 16.6791C9.56833 17.3996 10.7321 17.8344 11.9997 17.8344C12.7566 17.8344 13.4776 17.6805 14.1335 17.4018C14.0526 16.925 13.7351 15.2536 12.966 13.2576ZM15.0539 16.9032C16.2811 16.0762 17.1527 14.763 17.3959 13.242C17.2834 13.2058 15.7542 12.7224 13.9901 13.0048C14.707 14.9721 14.9983 16.5743 15.0539 16.9032ZM13.1757 11.0694C13.3026 11.3297 13.4254 11.5946 13.5388 11.8608C13.5792 11.9563 13.6185 12.0499 13.657 12.1435C15.5346 11.9076 17.3843 12.3045 17.4634 12.3208C17.4509 11.0269 16.9874 9.83953 16.2206 8.90991C16.2102 8.92454 15.3336 10.1894 13.1757 11.0694Z" fill="white"/>
</svg>
