<svg width="24" height="25" viewBox="0 0 24 25" fill="none" xmlns="http://www.w3.org/2000/svg">
<path opacity="0.1" fill-rule="evenodd" clip-rule="evenodd" d="M0 12.3857C0 5.75833 5.37258 0.385742 12 0.385742C18.6274 0.385742 24 5.75833 24 12.3857C24 19.0132 18.6274 24.3857 12 24.3857C5.37258 24.3857 0 19.0132 0 12.3857Z" fill="#F9F8F9"/>
<path fill-rule="evenodd" clip-rule="evenodd" d="M12.0006 5.98584C10.2624 5.98584 10.0443 5.99344 9.36161 6.02451C8.68027 6.05571 8.2152 6.16358 7.80827 6.32184C7.38733 6.48531 7.03026 6.70398 6.67452 7.05985C6.31852 7.41559 6.09985 7.77266 5.93585 8.19346C5.77718 8.60053 5.66918 9.06574 5.63851 9.74681C5.60798 10.4295 5.59998 10.6478 5.59998 12.3859C5.59998 14.1241 5.60771 14.3415 5.63864 15.0242C5.66998 15.7055 5.77784 16.1706 5.93598 16.5775C6.09958 16.9985 6.31825 17.3556 6.67412 17.7113C7.02972 18.0673 7.38679 18.2865 7.80747 18.45C8.21467 18.6082 8.67987 18.7161 9.36108 18.7473C10.0438 18.7784 10.2618 18.786 11.9998 18.786C13.7381 18.786 13.9555 18.7784 14.6382 18.7473C15.3195 18.7161 15.7851 18.6082 16.1924 18.45C16.6132 18.2865 16.9697 18.0673 17.3253 17.7113C17.6813 17.3556 17.9 16.9985 18.064 16.5777C18.2213 16.1706 18.3293 15.7054 18.3613 15.0243C18.392 14.3417 18.4 14.1241 18.4 12.3859C18.4 10.6478 18.392 10.4296 18.3613 9.74695C18.3293 9.0656 18.2213 8.60053 18.064 8.1936C17.9 7.77266 17.6813 7.41559 17.3253 7.05985C16.9693 6.70385 16.6133 6.48518 16.192 6.32184C15.7839 6.16358 15.3186 6.05571 14.6373 6.02451C13.9546 5.99344 13.7373 5.98584 11.9986 5.98584H12.0006ZM11.4264 7.13917C11.5968 7.1389 11.7869 7.13917 12.0005 7.13917C13.7094 7.13917 13.9119 7.1453 14.5867 7.17597C15.2107 7.2045 15.5494 7.30877 15.775 7.39637C16.0737 7.51237 16.2866 7.65104 16.5105 7.87504C16.7345 8.09904 16.8731 8.31238 16.9894 8.61105C17.077 8.83639 17.1814 9.17506 17.2098 9.79906C17.2405 10.4737 17.2471 10.6764 17.2471 12.3844C17.2471 14.0924 17.2405 14.2951 17.2098 14.9698C17.1813 15.5938 17.077 15.9325 16.9894 16.1578C16.8734 16.4565 16.7345 16.6691 16.5105 16.893C16.2865 17.117 16.0738 17.2557 15.775 17.3717C15.5497 17.4597 15.2107 17.5637 14.5867 17.5922C13.912 17.6229 13.7094 17.6295 12.0005 17.6295C10.2916 17.6295 10.0891 17.6229 9.41439 17.5922C8.79038 17.5634 8.45171 17.4591 8.22598 17.3715C7.92731 17.2555 7.71397 17.1169 7.48997 16.8929C7.26597 16.6689 7.1273 16.4561 7.01103 16.1573C6.92343 15.9319 6.81903 15.5933 6.79063 14.9692C6.75996 14.2946 6.75383 14.0919 6.75383 12.3828C6.75383 10.6737 6.75996 10.4721 6.79063 9.79746C6.81916 9.17345 6.92343 8.83478 7.01103 8.60918C7.12703 8.31051 7.26597 8.09718 7.48997 7.87317C7.71397 7.64917 7.92731 7.5105 8.22598 7.39424C8.45158 7.30624 8.79038 7.20223 9.41439 7.17357C10.0048 7.1469 10.2336 7.1389 11.4264 7.13757V7.13917ZM15.4169 8.20185C14.9928 8.20185 14.6488 8.54545 14.6488 8.96959C14.6488 9.39359 14.9928 9.7376 15.4169 9.7376C15.8409 9.7376 16.1849 9.39359 16.1849 8.96959C16.1849 8.54558 15.8409 8.20185 15.4169 8.20185ZM12.0006 9.09919C10.1855 9.09919 8.71389 10.5708 8.71389 12.3859C8.71389 14.201 10.1855 15.6719 12.0006 15.6719C13.8157 15.6719 15.2868 14.201 15.2868 12.3859C15.2868 10.5708 13.8157 9.09919 12.0006 9.09919ZM12.0006 10.2525C13.1787 10.2525 14.1339 11.2076 14.1339 12.3859C14.1339 13.564 13.1787 14.5192 12.0006 14.5192C10.8223 14.5192 9.86721 13.564 9.86721 12.3859C9.86721 11.2076 10.8223 10.2525 12.0006 10.2525Z" fill="white"/>
</svg>
