<svg width="24" height="25" viewBox="0 0 24 25" fill="none" xmlns="http://www.w3.org/2000/svg">
<path opacity="0.1" fill-rule="evenodd" clip-rule="evenodd" d="M0 12.3857C0 5.75833 5.37258 0.385742 12 0.385742C18.6274 0.385742 24 5.75833 24 12.3857C24 19.0132 18.6274 24.3857 12 24.3857C5.37258 24.3857 0 19.0132 0 12.3857Z" fill="#F9F8F9"/>
<path fill-rule="evenodd" clip-rule="evenodd" d="M11.6406 10.1394L11.6658 10.5547L11.2461 10.5038C9.71843 10.3089 8.38383 9.64795 7.25067 8.53785L6.69668 7.98704L6.55399 8.3938C6.25181 9.30052 6.44487 10.2581 7.0744 10.9021C7.41015 11.258 7.33461 11.3089 6.75544 11.097C6.55399 11.0292 6.37772 10.9784 6.36093 11.0038C6.30218 11.0631 6.50363 11.8342 6.66311 12.1393C6.88134 12.563 7.32621 12.9782 7.81305 13.224L8.22434 13.4189L7.73751 13.4274C7.26746 13.4274 7.25067 13.4358 7.30103 13.6138C7.46891 14.1646 8.13201 14.7493 8.87066 15.0035L9.39108 15.1815L8.93781 15.4527C8.26631 15.8425 7.4773 16.0628 6.68829 16.0797C6.31057 16.0882 6 16.1221 6 16.1475C6 16.2323 7.02404 16.7068 7.61999 16.8932C9.40786 17.4441 11.5315 17.2068 13.1263 16.2662C14.2595 15.5967 15.3926 14.2663 15.9214 12.9782C16.2068 12.2918 16.4922 11.0377 16.4922 10.436C16.4922 10.0462 16.5174 9.99539 16.9874 9.52931C17.2644 9.25815 17.5246 8.96155 17.575 8.87681C17.6589 8.71581 17.6505 8.71581 17.2224 8.85987C16.509 9.11409 16.4083 9.08019 16.7608 8.69886C17.021 8.42769 17.3316 7.9362 17.3316 7.79214C17.3316 7.76672 17.2057 7.80909 17.063 7.88535C16.9119 7.97009 16.5761 8.0972 16.3243 8.17347L15.8711 8.31753L15.4598 8.03789C15.2331 7.88535 14.9142 7.71587 14.7463 7.66503C14.3182 7.54639 13.6635 7.56334 13.2774 7.69893C12.2282 8.08026 11.5651 9.06324 11.6406 10.1394Z" fill="white"/>
</svg>
