<svg width="24" height="25" viewBox="0 0 24 25" fill="none" xmlns="http://www.w3.org/2000/svg">
<path opacity="0.1" fill-rule="evenodd" clip-rule="evenodd" d="M0 12.3857C0 5.75833 5.37258 0.385742 12 0.385742C18.6274 0.385742 24 5.75833 24 12.3857C24 19.0132 18.6274 24.3857 12 24.3857C5.37258 24.3857 0 19.0132 0 12.3857Z" fill="#F9F8F9"/>
<path fill-rule="evenodd" clip-rule="evenodd" d="M17.0008 8.2605C17.5515 8.41164 17.9853 8.85695 18.1325 9.42245C18.4 10.4474 18.4 12.5858 18.4 12.5858C18.4 12.5858 18.4 14.7242 18.1325 15.7492C17.9853 16.3147 17.5515 16.76 17.0008 16.9112C16.0027 17.1858 12 17.1858 12 17.1858C12 17.1858 7.99728 17.1858 6.9991 16.9112C6.44834 16.76 6.01459 16.3147 5.86739 15.7492C5.59998 14.7242 5.59998 12.5858 5.59998 12.5858C5.59998 12.5858 5.59998 10.4474 5.86739 9.42245C6.01459 8.85695 6.44834 8.41164 6.9991 8.2605C7.99728 7.98584 12 7.98584 12 7.98584C12 7.98584 16.0027 7.98584 17.0008 8.2605ZM10.8 10.7858V14.7858L14 12.7859L10.8 10.7858Z" fill="white"/>
</svg>
