<svg width="159" height="54" viewBox="0 0 159 54" fill="none" xmlns="http://www.w3.org/2000/svg">
<circle cx="27" cy="27" r="27" fill="white"/>
<path d="M27.592 32.8032H32.968V35.9712H23.488V19.1232H27.592V32.8032Z" fill="#0F6E8C"/>
<path d="M69.126 33.0672H74.054V35.9712H65.364V20.5272H69.126V33.0672ZM76.6004 29.8112C76.6004 28.5499 76.835 27.4425 77.3044 26.4892C77.7884 25.5359 78.441 24.8025 79.2624 24.2892C80.0837 23.7759 81.0004 23.5192 82.0124 23.5192C82.8777 23.5192 83.633 23.6952 84.2784 24.0472C84.9384 24.3992 85.4444 24.8612 85.7964 25.4332V23.6952H89.5584V35.9712H85.7964V34.2332C85.4297 34.8052 84.9164 35.2672 84.2564 35.6192C83.611 35.9712 82.8557 36.1472 81.9904 36.1472C80.993 36.1472 80.0837 35.8905 79.2624 35.3772C78.441 34.8492 77.7884 34.1085 77.3044 33.1552C76.835 32.1872 76.6004 31.0725 76.6004 29.8112ZM85.7964 29.8332C85.7964 28.8945 85.5324 28.1539 85.0044 27.6112C84.491 27.0685 83.8604 26.7972 83.1124 26.7972C82.3644 26.7972 81.7264 27.0685 81.1984 27.6112C80.685 28.1392 80.4284 28.8725 80.4284 29.8112C80.4284 30.7499 80.685 31.4979 81.1984 32.0552C81.7264 32.5979 82.3644 32.8692 83.1124 32.8692C83.8604 32.8692 84.491 32.5979 85.0044 32.0552C85.5324 31.5125 85.7964 30.7719 85.7964 29.8332ZM111.402 23.6952L108.08 35.9712H103.922L101.986 28.0072L99.984 35.9712H95.848L92.504 23.6952H96.266L98.004 32.4732L100.072 23.6952H104.054L106.144 32.4292L107.86 23.6952H111.402ZM118.099 19.6912V35.9712H114.337V19.6912H118.099ZM124.217 22.4192C123.557 22.4192 123.014 22.2285 122.589 21.8472C122.178 21.4512 121.973 20.9672 121.973 20.3952C121.973 19.8085 122.178 19.3245 122.589 18.9432C123.014 18.5472 123.557 18.3492 124.217 18.3492C124.862 18.3492 125.39 18.5472 125.801 18.9432C126.226 19.3245 126.439 19.8085 126.439 20.3952C126.439 20.9672 126.226 21.4512 125.801 21.8472C125.39 22.2285 124.862 22.4192 124.217 22.4192ZM126.087 23.6952V35.9712H122.325V23.6952H126.087ZM141.885 29.6352C141.885 29.9872 141.863 30.3539 141.819 30.7352H133.305C133.364 31.4979 133.606 32.0845 134.031 32.4952C134.471 32.8912 135.007 33.0892 135.637 33.0892C136.576 33.0892 137.229 32.6932 137.595 31.9012H141.599C141.394 32.7079 141.02 33.4339 140.477 34.0792C139.949 34.7245 139.282 35.2305 138.475 35.5972C137.669 35.9639 136.767 36.1472 135.769 36.1472C134.567 36.1472 133.496 35.8905 132.557 35.3772C131.619 34.8639 130.885 34.1305 130.357 33.1772C129.829 32.2239 129.565 31.1092 129.565 29.8332C129.565 28.5572 129.822 27.4425 130.335 26.4892C130.863 25.5359 131.597 24.8025 132.535 24.2892C133.474 23.7759 134.552 23.5192 135.769 23.5192C136.957 23.5192 138.013 23.7685 138.937 24.2672C139.861 24.7659 140.58 25.4772 141.093 26.4012C141.621 27.3252 141.885 28.4032 141.885 29.6352ZM138.035 28.6452C138.035 27.9999 137.815 27.4865 137.375 27.1052C136.935 26.7239 136.385 26.5332 135.725 26.5332C135.095 26.5332 134.559 26.7165 134.119 27.0832C133.694 27.4499 133.43 27.9705 133.327 28.6452H138.035ZM152.212 32.7812V35.9712H150.298C148.934 35.9712 147.871 35.6412 147.108 34.9812C146.345 34.3065 145.964 33.2139 145.964 31.7032V26.8192H144.468V23.6952H145.964V20.7032H149.726V23.6952H152.19V26.8192H149.726V31.7472C149.726 32.1139 149.814 32.3779 149.99 32.5392C150.166 32.7005 150.459 32.7812 150.87 32.7812H152.212Z" fill="#F9F8F9"/>
</svg>
